<!--?xml version="1.0" encoding="utf-8"?-->
<!-- Generator: Adobe Illustrator 18.1.1, SVG Export Plug-In . SVG Version: 6.00 Build 0)  -->

<svg version="1.1" id="_x32_" xmlns="http://www.w3.org/2000/svg" xmlns:xlink="http://www.w3.org/1999/xlink" x="0px" y="0px" viewBox="0 0 512 512" style="width: 256px; height: 256px; opacity: 1;" xml:space="preserve">
<style type="text/css">
	.st0{fill:#4B4B4B;}
</style>
<g>
	<circle class="st0" cx="335.753" cy="341.515" r="19.977" style="fill: rgb(75, 75, 75);"></circle>
	<path class="st0" d="M424.697,244.978c-5.649-11.901-11.221-22.124-15.138-30.185c-1.966-4.019-3.512-7.499-4.464-10.168
		c-0.952-2.638-1.217-4.48-1.186-4.807v-0.094v0.023c0.14-1.841,0.53-2.645,0.936-3.316c0.421-0.648,1.014-1.241,2.029-1.881
		c1.108-0.678,1.826-0.991,2.357-1.194l1.67,0.882l4.369-1.03c9.224-2.193,15.748-10.418,15.748-19.923v-21.007
		c0-16.005-12.954-28.959-28.967-28.967h-46.524c-4.026-8.358-12.502-14.171-22.396-14.171h-70.349
		c-9.895,0-18.369,5.814-22.388,14.171h-32.697c-3.527-14.507-13.282-43.645-39.424-79.105
		c-4.979-6.718-14.094-16.996-25.798-26.282c-5.854-4.612-12.33-8.951-19.4-12.267C116.004,2.365,108.263,0.016,99.96,0
		c-6.914-0.031-14.234,1.779-20.742,5.844c-5.369,3.309-9.24,8.163-11.596,13.337c-2.388,5.196-3.418,10.745-3.418,16.278
		c0.016,6.688,1.498,13.406,4.511,19.657c2.996,6.227,7.601,12.026,13.937,16.255c14.265,9.497,27.703,21.179,37.566,32.892
		c5.572,6.532,9.848,13.079,12.736,19.049h-0.328c-15.997,0.008-28.951,12.962-28.951,28.967v20.929
		c0,9.591,6.648,17.871,15.966,19.97l4.652,1.053l1.326-0.788c0.499,0.21,1.077,0.444,1.95,0.952
		c1.124,0.663,1.78,1.288,2.232,1.959c0.422,0.687,0.843,1.491,0.984,3.418v0.031c0.046,0.304-0.219,2.162-1.187,4.822
		c-1.654,4.698-5.15,11.729-9.473,20.118c-12.938,25.314-33.196,63.513-33.228,111.17c0,3.09,0.078,6.227,0.265,9.388
		c2.278,40.032,16.2,81.555,45.557,113.472c29.31,31.956,74.165,53.338,134.627,53.228c60.462,0.11,105.317-21.272,134.627-53.228
		c29.357-31.917,43.279-73.44,45.573-113.472c0.172-3.168,0.25-6.298,0.25-9.38C447.796,299.61,435.997,268.786,424.697,244.978z
		 M407.045,152.279v17.059c-3.855,0.5-8.209,1.974-12.782,4.83c-0.827,0.507-1.623,1.256-2.45,1.872h-33.766v-28.756h44.004
		C404.813,147.292,407.045,149.516,407.045,152.279z M95.949,51.426c-2.31-1.545-4.261-3.855-5.65-6.735
		c-1.39-2.856-2.138-6.211-2.123-9.231c0-2.497,0.5-4.722,1.218-6.258c0.733-1.56,1.529-2.396,2.435-2.973
		c2.653-1.608,5.072-2.224,8.131-2.255c3.605-0.016,8.1,1.116,12.938,3.395c7.273,3.378,15.076,9.231,21.585,15.256
		c6.524,5.993,11.861,12.228,14.499,15.802c16.918,22.982,26.142,42.716,31.136,56.521c1.015,2.802,1.811,5.284,2.513,7.57H158.44
		c-3.761-11.791-10.94-22.997-19.899-33.712C126.866,74.992,111.947,62.101,95.949,51.426z M127.647,169.29v-17.012
		c0-2.762,2.232-4.986,4.978-4.994h105.239v28.756h-94.985c-1.092-0.827-2.169-1.74-3.277-2.38
		C135.279,171.148,131.268,169.775,127.647,169.29z M423.605,343.942c-1.998,35.522-14.452,71.691-39.268,98.582
		c-24.862,26.852-61.975,45.393-116.991,45.502c-55-0.11-92.129-18.651-116.991-45.502c-24.816-26.884-37.254-63.061-39.252-98.582
		c-0.156-2.708-0.234-5.385-0.234-8.03c-0.016-31.02,10.144-58.246,20.789-80.658c5.322-11.214,10.721-21.148,15.029-29.958
		c2.154-4.424,4.043-8.561,5.494-12.65c1.436-4.105,2.544-8.155,2.575-12.844l-0.047-1.631v-0.024
		c-0.141-2.122-0.531-4.151-1.045-6.126h84.2v57.598c0,10.465,8.553,18.94,19.017,18.94c10.465,0,19.017-8.475,19.017-18.94v-12.228
		c0-10.465,8.553-19.017,19.018-19.017c10.473,0,19.018,8.552,19.018,19.017v36.2c0,12.143,9.832,22.053,22.06,22.053
		c12.143,0,22.053-9.91,22.053-22.053v-81.571h22.982c-0.515,1.96-0.905,3.988-1.03,6.095l-0.062,1.686
		c0.031,4.698,1.138,8.74,2.574,12.844c2.56,7.125,6.399,14.562,10.738,23.052c13.063,25.322,30.621,59.51,30.575,100.221
		C423.824,338.566,423.761,341.242,423.605,343.942z" style="fill: rgb(75, 75, 75);"></path>
	<path class="st0" d="M379.999,198.07l-0.016,0.102c0-0.024,0.016-0.039,0.016-0.055v-0.023V198.07z" style="fill: rgb(75, 75, 75);"></path>
</g>
</svg>
